<svg version="1.1" xmlns="http://www.w3.org/2000/svg" xmlns:xlink="http://www.w3.org/1999/xlink" width="300.40488" height="341.28499" viewBox="0,0,300.40488,341.28499"><g transform="translate(-199.22224,-1.8855)"><g fill-opacity="0.14902" fill="#ffffff" stroke="none" stroke-width="0" stroke-miterlimit="10"><path d="M233.58844,217.51624c5.52175,8.68605 2.95657,20.20374 -5.72948,25.72549c-8.68605,5.52175 -20.20374,2.95657 -25.72549,-5.72948c-5.52175,-8.68605 -2.95657,-20.20374 5.72948,-25.72549c8.68605,-5.52175 20.20374,-2.95657 25.72549,5.72948z"/><path d="M483.91186,190.88009c4.76673,-3.03022 11.08742,-1.62252 14.11764,3.14422c3.03022,4.76673 1.62252,11.08742 -3.14422,14.11764c-4.76673,3.03022 -11.08742,1.62252 -14.11764,-3.14422c-3.03022,-4.76673 -1.62252,-11.08742 3.14422,-14.11764z"/><path d="M267.37627,55.45847c4.04031,6.35565 2.16334,14.78323 -4.19231,18.82353c-6.35565,4.04031 -14.78323,2.16335 -18.82353,-4.1923c-4.04031,-6.35565 -2.16335,-14.78323 4.19229,-18.82354c6.35565,-4.04031 14.78323,-2.16334 18.82353,4.19231z"/><path d="M436.86253,90.17942c4.91569,7.7327 2.63208,17.98627 -5.10062,22.90196c-7.7327,4.91569 -17.98627,2.63208 -22.90197,-5.10064c-4.91569,-7.7327 -2.63208,-17.98627 5.10064,-22.90197c7.7327,-4.91569 17.98625,-2.63207 22.90195,5.10063z"/><path d="M303.79531,330.59748c3.17783,-2.02015 7.39161,-1.08167 9.41177,2.09615c2.02015,3.17783 1.08167,7.39161 -2.09615,9.41177c-3.17783,2.02015 -7.39161,1.08167 -9.41177,-2.09615c-2.02015,-3.17783 -1.08167,-7.39161 2.09615,-9.41177z"/><path d="M286.80965,270.9887c3.03023,4.76674 1.62251,11.08744 -3.14422,14.11766c-4.76674,3.03023 -11.08742,1.62251 -14.11765,-3.14423c-3.03023,-4.76674 -1.62251,-11.08744 3.14422,-14.11766c4.76674,-3.03023 11.08742,-1.62251 14.11765,3.14423z"/><path d="M354.2108,2.95058c3.17783,-2.02015 7.39161,-1.08167 9.41177,2.09615c2.02015,3.17783 1.08167,7.39161 -2.09615,9.41177c-3.17783,2.02015 -7.39161,1.08167 -9.41177,-2.09615c-2.02015,-3.17783 -1.08167,-7.39161 2.09615,-9.41177z"/><path d="M415.39715,250.86289c5.52175,8.68605 2.95658,20.20375 -5.72948,25.72551c-8.68605,5.52175 -20.20374,2.95657 -25.7255,-5.72948c-5.52175,-8.68605 -2.95658,-20.20375 5.72948,-25.72551c8.68605,-5.52175 20.20374,-2.95657 25.7255,5.72948z"/><path d="M321.8899,305.9968c5.52175,8.68605 2.95657,20.20376 -5.72949,25.72551c-8.68605,5.52175 -20.20374,2.95657 -25.7255,-5.72948c-5.52175,-8.68605 -2.95658,-20.20375 5.72948,-25.72551c8.68605,-5.52175 20.20376,-2.95657 25.72551,5.72949z"/></g></g></svg>