<svg version="1.1" xmlns="http://www.w3.org/2000/svg" xmlns:xlink="http://www.w3.org/1999/xlink" width="631.88044" height="360" viewBox="0,0,631.88044,360"><defs><linearGradient x1="320.00002" y1="217.51705" x2="320.00002" y2="360" gradientUnits="userSpaceOnUse" id="color-1"><stop offset="0" stop-color="#000000" stop-opacity="0.05098"/><stop offset="1" stop-color="#000000" stop-opacity="0"/></linearGradient><radialGradient cx="554.15113" cy="59.83495" r="81.05769" gradientUnits="userSpaceOnUse" id="color-2"><stop offset="0" stop-color="#ffffff" stop-opacity="0.14902"/><stop offset="1" stop-color="#ffffff" stop-opacity="0"/></radialGradient><linearGradient x1="169.10059" y1="25.57961" x2="236.84418" y2="25.57961" gradientUnits="userSpaceOnUse" id="color-3"><stop offset="0" stop-color="#000000" stop-opacity="0.85098"/><stop offset="1" stop-color="#000000" stop-opacity="0"/></linearGradient><radialGradient cx="84.86984" cy="25.55657" r="81.05769" gradientUnits="userSpaceOnUse" id="color-4"><stop offset="0" stop-color="#ffffff" stop-opacity="0.3098"/><stop offset="1" stop-color="#ffffff" stop-opacity="0"/></radialGradient><linearGradient x1="469.9107" y1="59.84649" x2="402.16713" y2="59.84649" gradientUnits="userSpaceOnUse" id="color-5"><stop offset="0" stop-color="#000000" stop-opacity="0.85098"/><stop offset="1" stop-color="#000000" stop-opacity="0"/></linearGradient><linearGradient x1="89.06599" y1="346.46351" x2="123.62295" y2="346.46351" gradientUnits="userSpaceOnUse" id="color-6"><stop offset="0" stop-color="#000000" stop-opacity="0.85098"/><stop offset="1" stop-color="#000000" stop-opacity="0"/></linearGradient><radialGradient cx="44.68165" cy="346.47504" r="41.34867" gradientUnits="userSpaceOnUse" id="color-7"><stop offset="0" stop-color="#ffffff" stop-opacity="0.14902"/><stop offset="1" stop-color="#ffffff" stop-opacity="0"/></radialGradient><radialGradient cx="574.09309" cy="12.13123" r="61.11573" gradientUnits="userSpaceOnUse" id="color-8"><stop offset="0" stop-color="#ffffff" stop-opacity="0.14902"/><stop offset="1" stop-color="#ffffff" stop-opacity="0"/></radialGradient><linearGradient x1="483.4943" y1="12.13993" x2="432.41713" y2="12.13993" gradientUnits="userSpaceOnUse" id="color-9"><stop offset="0" stop-color="#000000" stop-opacity="0.85098"/><stop offset="1" stop-color="#000000" stop-opacity="0"/></linearGradient><linearGradient x1="320.00002" y1="0" x2="320.00002" y2="142.48295" gradientUnits="userSpaceOnUse" id="color-10"><stop offset="0" stop-color="#000000" stop-opacity="0"/><stop offset="1" stop-color="#000000" stop-opacity="0.05098"/></linearGradient></defs><g transform="translate(-3.3284,0)"><g stroke-miterlimit="10"><path d="M184.05656,360v-142.48295h271.88691v142.48295z" fill="url(#color-1)" stroke="#000000" stroke-width="0"/><path d="M473.09346,70.76629v-21.86268h162.11538v21.86268z" fill="url(#color-2)" stroke="#000000" stroke-width="0"/><path d="M169.10059,47.42427v-43.68932h67.74359v43.68932z" fill="url(#color-3)" stroke="#000000" stroke-width="0"/><path d="M3.80315,47.40123v-43.68932h162.11538v43.68932z" fill-opacity="0.85098" fill="#000000" stroke="#000000" stroke-width="0"/><path d="M3.81216,47.40123v-43.68932h162.11538v43.68932z" fill="url(#color-4)" stroke="#000000" stroke-width="0"/><path d="M473.08445,70.76629v-21.86268h162.11538v21.86268z" fill-opacity="0.85098" fill="#000000" stroke="#000000" stroke-width="0"/><path d="M402.16713,70.77783v-21.86268h67.74359v21.86268z" fill="url(#color-5)" stroke="#000000" stroke-width="0"/><path d="M89.06599,357.39485v-21.86268h34.55696v21.86268z" fill="url(#color-6)" stroke="#000000" stroke-width="0"/><path d="M3.3284,357.40638v-21.86268h82.69733v21.86268z" fill-opacity="0.85098" fill="#000000" stroke="#000000" stroke-width="0"/><path d="M3.333,357.40638v-21.86268h82.69733v21.86268z" fill="url(#color-7)" stroke="#000000" stroke-width="0"/><path d="M472.83469,70.77783v-21.86268h0.24888v21.86268z" fill="#ffffff" stroke="none" stroke-width="0"/><path d="M469.8802,70.75475v-21.86268h0.24888v21.86268z" fill="#5f5f5f" stroke="none" stroke-width="0"/><path d="M470.14098,70.75475v-21.86268h2.68848v21.86268z" fill="#d3d3d3" stroke="none" stroke-width="0"/><path d="M168.71427,47.40123v-43.64325h0.24888v43.64325z" fill="#ffffff" stroke="none" stroke-width="0"/><path d="M165.75977,47.35516v-43.64325h0.24888v43.64325z" fill="#5f5f5f" stroke="none" stroke-width="0"/><path d="M166.02052,47.35516v-43.64325h2.68848v43.64325z" fill="#d3d3d3" stroke="none" stroke-width="0"/><path d="M88.7972,357.40638v-21.83962h0.24889v21.83962z" fill="#ffffff" stroke="none" stroke-width="0"/><path d="M85.8427,357.38332v-21.83962h0.24889v21.83962z" fill="#5f5f5f" stroke="none" stroke-width="0"/><path d="M86.10348,357.38332v-21.83962h2.68848v21.83962z" fill="#d3d3d3" stroke="none" stroke-width="0"/><path d="M512.97737,20.37321v-16.48398h122.23147v16.48398z" fill="url(#color-8)" stroke="#000000" stroke-width="0"/><path d="M485.88658,20.37321v-16.48398h149.31546v16.48398z" fill-opacity="0.85098" fill="#000000" stroke="#000000" stroke-width="0"/><path d="M432.41713,20.38192v-16.48398h51.07719v16.48399z" fill="url(#color-9)" stroke="#000000" stroke-width="0"/><path d="M485.69893,20.38192v-16.48398h0.18765v16.48399z" fill="#ffffff" stroke="none" stroke-width="0"/><path d="M483.47131,20.36452v-16.48398h0.18765v16.48399z" fill="#5f5f5f" stroke="none" stroke-width="0"/><path d="M483.66793,20.36452v-16.48398h2.02706v16.48399z" fill="#d3d3d3" stroke="none" stroke-width="0"/><text transform="translate(490.34805,15.16321) scale(0.27823,0.27823)" font-size="40" xml:space="preserve" fill="#ffffff" stroke="none" stroke-width="1" font-family="Sans Serif" font-weight="normal" text-anchor="start"><tspan x="0" dy="0">Now playing:  Shopii Music</tspan></text><path d="M184.05657,142.48295v-142.48295h271.88691v142.48295z" fill="url(#color-10)" stroke="#000000" stroke-width="0"/><path d="M184.05656,217.51705v-75.03411h271.88691v75.03411z" fill-opacity="0.05098" fill="#000000" stroke="#000000" stroke-width="0"/></g></g></svg>