<svg version="1.1" xmlns="http://www.w3.org/2000/svg" xmlns:xlink="http://www.w3.org/1999/xlink" width="233.22793" height="237.51485" viewBox="0,0,233.22793,237.51485"><g transform="translate(-214.59558,-63.90483)"><g fill-opacity="0.45098" fill="#ffffff" stroke="none" stroke-width="0" stroke-miterlimit="10"><path d="M250.79976,198.17446c3.443,9.69964 -1.629,20.35384 -11.32864,23.79684c-9.69964,3.443 -20.35384,-1.629 -23.79684,-11.32864c-3.443,-9.69964 1.629,-20.35384 11.32864,-23.79684c9.69964,-3.443 20.35384,1.629 23.79684,11.32864z"/><path d="M434.1723,219.90015c5.32296,-1.88945 11.16979,0.89396 13.05924,6.21694c1.88945,5.32296 -0.89396,11.16979 -6.21694,13.05924c-5.32296,1.88945 -11.16979,-0.89396 -13.05924,-6.21694c-1.88945,-5.32296 0.89396,-11.16979 6.21694,-13.05924z"/><path d="M301.68138,86.05868c2.51927,7.0973 -1.19196,14.89306 -8.28925,17.41232c-7.0973,2.51927 -14.89307,-1.19196 -17.41233,-8.28924c-2.51927,-7.0973 1.19196,-14.89307 8.28925,-17.41234c7.0973,-2.51927 14.89306,1.19196 17.41233,8.28926z"/><path d="M420.82977,139.50846c3.06511,8.63504 -1.45021,18.11989 -10.08525,21.185c-8.63504,3.06511 -18.11989,-1.45021 -21.185,-10.08526c-3.06511,-8.63504 1.45021,-18.11989 10.08526,-21.185c8.63504,-3.06511 18.11988,1.45021 21.18499,10.08526z"/><path d="M301.11463,259.75086c3.54865,-1.25963 7.44653,0.59597 8.70616,4.14462c1.25963,3.54864 -0.59597,7.44653 -4.14462,8.70616c-3.54864,1.25963 -7.44653,-0.59597 -8.70616,-4.14462c-1.25963,-3.54865 0.59597,-7.44653 4.14462,-8.70616z"/><path d="M284.04827,243.33209c1.88945,5.32297 -0.89397,11.1698 -6.21693,13.05925c-5.32297,1.88945 -11.16979,-0.89397 -13.05925,-6.21695c-1.88945,-5.32297 0.89397,-11.1698 6.21693,-13.05925c5.32297,-1.88945 11.16979,0.89397 13.05925,6.21695z"/><path d="M369.77569,64.29947c3.54865,-1.25963 7.44653,0.59597 8.70616,4.14462c1.25963,3.54864 -0.59597,7.44653 -4.14462,8.70616c-3.54864,1.25963 -7.44653,-0.59597 -8.70616,-4.14462c-1.25963,-3.54865 0.59597,-7.44653 4.14462,-8.70616z"/><path d="M382.26639,253.03589c3.443,9.69964 -1.629,20.35385 -11.32864,23.79685c-9.69964,3.443 -20.35385,-1.62901 -23.79685,-11.32865c-3.443,-9.69964 1.629,-20.35385 11.32864,-23.79685c9.69964,-3.443 20.35385,1.62901 23.79685,11.32865z"/><path d="M306.07417,276.54412c3.443,9.69964 -1.62901,20.35386 -11.32865,23.79686c-9.69964,3.443 -20.35385,-1.62901 -23.79685,-11.32865c-3.443,-9.69964 1.629,-20.35385 11.32864,-23.79685c9.69964,-3.443 20.35386,1.62901 23.79686,11.32865z"/></g></g></svg>