<svg version="1.1" xmlns="http://www.w3.org/2000/svg" xmlns:xlink="http://www.w3.org/1999/xlink" width="73.1345" height="93.87564" viewBox="0,0,73.1345,93.87564"><defs><linearGradient x1="337.34616" y1="154.18523" x2="337.34616" y2="213.8707" gradientUnits="userSpaceOnUse" id="color-1"><stop offset="0" stop-color="#525252"/><stop offset="1" stop-color="#fbfbfb"/></linearGradient><linearGradient x1="310.59303" y1="154.18523" x2="310.59303" y2="213.8707" gradientUnits="userSpaceOnUse" id="color-2"><stop offset="0" stop-color="#525252"/><stop offset="1" stop-color="#fbfbfb"/></linearGradient><linearGradient x1="336.47516" y1="154.03859" x2="336.47516" y2="213.72406" gradientUnits="userSpaceOnUse" id="color-3"><stop offset="0" stop-color="#525252"/><stop offset="1" stop-color="#fbfbfb"/></linearGradient><linearGradient x1="309.72203" y1="154.03859" x2="309.72203" y2="213.72406" gradientUnits="userSpaceOnUse" id="color-4"><stop offset="0" stop-color="#525252"/><stop offset="1" stop-color="#fbfbfb"/></linearGradient><linearGradient x1="334.24758" y1="150.30391" x2="334.24758" y2="209.98938" gradientUnits="userSpaceOnUse" id="color-5"><stop offset="0" stop-color="#525252"/><stop offset="1" stop-color="#fbfbfb"/></linearGradient><linearGradient x1="307.49445" y1="150.30391" x2="307.49445" y2="209.98938" gradientUnits="userSpaceOnUse" id="color-6"><stop offset="0" stop-color="#525252"/><stop offset="1" stop-color="#fbfbfb"/></linearGradient><linearGradient x1="353.53206" y1="156.89419" x2="313.22109" y2="203.10581" gradientUnits="userSpaceOnUse" id="color-7"><stop offset="0" stop-color="#525252"/><stop offset="0.40094" stop-color="#ffffff"/><stop offset="0.41274" stop-color="#ababab"/><stop offset="1" stop-color="#ffffff"/></linearGradient><linearGradient x1="333.37658" y1="150.15727" x2="333.37658" y2="209.84274" gradientUnits="userSpaceOnUse" id="color-8"><stop offset="0" stop-color="#525252"/><stop offset="1" stop-color="#fbfbfb"/></linearGradient><linearGradient x1="326.77893" y1="156.89419" x2="286.46796" y2="203.10581" gradientUnits="userSpaceOnUse" id="color-9"><stop offset="0" stop-color="#525252"/><stop offset="0.42925" stop-color="#ffffff"/><stop offset="0.44575" stop-color="#ababab"/><stop offset="0.98585" stop-color="#ffffff"/></linearGradient><linearGradient x1="306.62345" y1="150.15727" x2="306.62345" y2="209.84274" gradientUnits="userSpaceOnUse" id="color-10"><stop offset="0" stop-color="#525252"/><stop offset="1" stop-color="#fbfbfb"/></linearGradient></defs><g transform="translate(-284.36713,-147.67661)"><g stroke-miterlimit="10"><path d="M357.50163,213.8707l-20.1555,-14.92137l-20.15548,-14.92137l20.15548,-14.92137l20.1555,-14.92137v29.84274z" fill-opacity="0.28235" fill="#000000" stroke="url(#color-1)" stroke-width="0"/><path d="M330.7485,213.8707l-20.15548,-14.92137l-20.1555,-14.92137l20.1555,-14.92137l20.15548,-14.92137v29.84274z" fill-opacity="0.28235" fill="#000000" stroke="url(#color-2)" stroke-width="0"/><path d="M356.63064,213.72406l-20.1555,-14.92137l-20.15548,-14.92137l20.15548,-14.92137l20.1555,-14.92137v29.84274z" fill-opacity="0.28235" fill="#000000" stroke="url(#color-3)" stroke-width="0"/><path d="M329.87751,213.72406l-20.15548,-14.92137l-20.1555,-14.92137l20.1555,-14.92137l20.15548,-14.92137v29.84274z" fill-opacity="0.28235" fill="#000000" stroke="url(#color-4)" stroke-width="0"/><text transform="translate(309.3186,235.30224) scale(0.5,0.5)" font-size="40" xml:space="preserve" fill-opacity="0.28235" fill="#000000" stroke="none" stroke-width="1" font-family="Sans Serif" font-weight="normal" text-anchor="start"><tspan x="0" dy="0">-1s</tspan></text><path d="M354.40305,209.98938l-20.1555,-14.92137l-20.15548,-14.92137l20.15548,-14.92137l20.1555,-14.92137v29.84274z" fill-opacity="0.28235" fill="#000000" stroke="url(#color-5)" stroke-width="0"/><path d="M327.64992,209.98938l-20.15548,-14.92137l-20.1555,-14.92137l20.1555,-14.92137l20.15548,-14.92137v29.84274z" fill-opacity="0.28235" fill="#000000" stroke="url(#color-6)" stroke-width="0"/><path d="M353.53206,209.84274l-20.1555,-14.92137l-20.15548,-14.92137l20.15548,-14.92137l20.1555,-14.92137v29.84274z" fill="url(#color-7)" stroke="url(#color-8)" stroke-width="2.5"/><path d="M326.77893,209.84274l-20.15548,-14.92137l-20.1555,-14.92137l20.1555,-14.92137l20.15548,-14.92137v29.84274z" fill="url(#color-9)" stroke="url(#color-10)" stroke-width="2.5"/><text transform="translate(306.22002,231.42092) scale(0.5,0.5)" font-size="40" xml:space="preserve" fill="#bfbfbf" stroke="none" stroke-width="1" font-family="Sans Serif" font-weight="normal" text-anchor="start"><tspan x="0" dy="0">-1s</tspan></text></g></g></svg>