<svg version="1.1" xmlns="http://www.w3.org/2000/svg" xmlns:xlink="http://www.w3.org/1999/xlink" width="824.88761" height="178.37744" viewBox="0,0,824.88761,178.37744"><defs><linearGradient x1="373.53102" y1="-13.60265" x2="373.53102" y2="164.77478" gradientUnits="userSpaceOnUse" id="color-1"><stop offset="0" stop-color="#9966ff"/><stop offset="1" stop-color="#ff9866"/></linearGradient><linearGradient x1="373.53102" y1="-13.60265" x2="373.53102" y2="164.77478" gradientUnits="userSpaceOnUse" id="color-2"><stop offset="0" stop-color="#9966ff"/><stop offset="1" stop-color="#ff9866"/></linearGradient><linearGradient x1="373.53102" y1="-13.60265" x2="373.53102" y2="164.77478" gradientUnits="userSpaceOnUse" id="color-3"><stop offset="0" stop-color="#9966ff"/><stop offset="1" stop-color="#ff9866"/></linearGradient><linearGradient x1="373.53102" y1="-13.60265" x2="373.53102" y2="164.77478" gradientUnits="userSpaceOnUse" id="color-4"><stop offset="0" stop-color="#9966ff"/><stop offset="1" stop-color="#ff9866"/></linearGradient><linearGradient x1="1020.04192" y1="-13.60265" x2="1020.04192" y2="164.77478" gradientUnits="userSpaceOnUse" id="color-5"><stop offset="0" stop-color="#9966ff"/><stop offset="1" stop-color="#ff9866"/></linearGradient><linearGradient x1="1020.04192" y1="-13.60265" x2="1020.04192" y2="164.77478" gradientUnits="userSpaceOnUse" id="color-6"><stop offset="0" stop-color="#9966ff"/><stop offset="1" stop-color="#ff9866"/></linearGradient></defs><g transform="translate(-284.34265,13.60267)"><g stroke="#000000" stroke-width="0" stroke-miterlimit="10"><path d="M351.08854,164.77478l-66.74588,-111.6326l111.63085,-66.74483l66.74588,111.63261z" fill="url(#color-1)"/><path d="M351.08854,164.77478l-66.74588,-111.6326l111.63085,-66.74483l66.74588,111.63261z" fill="url(#color-2)"/><path d="M351.08854,164.77478l-66.74588,-111.6326l111.63085,-66.74483l66.74588,111.63261z" fill="url(#color-3)"/><path d="M351.08854,164.77478l-66.74588,-111.6326l111.63085,-66.74483l66.74588,111.63261z" fill="url(#color-4)"/><path d="M997.59943,164.77478l-66.74588,-111.63261l111.63084,-66.74483l66.74588,111.63261z" fill="url(#color-5)"/><path d="M997.59943,164.77478l-66.74588,-111.63261l111.63084,-66.74483l66.74588,111.63261z" fill="url(#color-6)"/></g></g></svg>