<svg version="1.1" xmlns="http://www.w3.org/2000/svg" xmlns:xlink="http://www.w3.org/1999/xlink" width="1186.80871" height="300.09645" viewBox="0,0,1186.80871,300.09645"><defs><linearGradient x1="177.72381" y1="28.08583" x2="177.72381" y2="177.73279" gradientUnits="userSpaceOnUse" id="color-1"><stop offset="0" stop-color="#9966ff"/><stop offset="1" stop-color="#66ebff"/></linearGradient><linearGradient x1="526.21659" y1="269.57908" x2="576.69961" y2="159.5182" gradientUnits="userSpaceOnUse" id="color-2"><stop offset="0" stop-color="#ff6685"/><stop offset="1" stop-color="#66eaff"/></linearGradient><linearGradient x1="585.02636" y1="-19.18384" x2="585.02636" y2="97.16004" gradientUnits="userSpaceOnUse" id="color-3"><stop offset="0" stop-color="#a266ff"/><stop offset="1" stop-color="#e8ff66"/></linearGradient><linearGradient x1="177.72381" y1="28.08583" x2="177.72381" y2="177.73279" gradientUnits="userSpaceOnUse" id="color-4"><stop offset="0" stop-color="#9966ff"/><stop offset="1" stop-color="#66ebff"/></linearGradient><linearGradient x1="526.21659" y1="269.57908" x2="576.69961" y2="159.5182" gradientUnits="userSpaceOnUse" id="color-5"><stop offset="0" stop-color="#ff6685"/><stop offset="1" stop-color="#66eaff"/></linearGradient><linearGradient x1="585.02636" y1="-19.18384" x2="585.02636" y2="97.16004" gradientUnits="userSpaceOnUse" id="color-6"><stop offset="0" stop-color="#a266ff"/><stop offset="1" stop-color="#e8ff66"/></linearGradient><linearGradient x1="824.2347" y1="28.08583" x2="824.2347" y2="177.73279" gradientUnits="userSpaceOnUse" id="color-7"><stop offset="0" stop-color="#9966ff"/><stop offset="1" stop-color="#66ebff"/></linearGradient><linearGradient x1="1172.7275" y1="269.57908" x2="1223.21051" y2="159.51823" gradientUnits="userSpaceOnUse" id="color-8"><stop offset="0" stop-color="#ff6685"/><stop offset="1" stop-color="#66eaff"/></linearGradient><linearGradient x1="1231.53728" y1="-19.18386" x2="1231.53728" y2="97.16004" gradientUnits="userSpaceOnUse" id="color-9"><stop offset="0" stop-color="#a266ff"/><stop offset="1" stop-color="#e8ff66"/></linearGradient></defs><g transform="translate(-102.90033,19.18383)"><g stroke="#000000" stroke-width="0" stroke-miterlimit="10"><path d="M177.72441,177.73279l-74.82408,-74.82408l74.8229,-74.82289l74.82407,74.82407z" fill="url(#color-1)"/><path d="M617.82204,215.08034l-66.89665,65.83228l-65.83124,-66.89559l66.89664,-65.83227z" fill="url(#color-2)"/><path d="M643.19813,27.41969l-46.60426,69.74035l-69.73925,-46.60352l46.60425,-69.74035z" fill="url(#color-3)"/><path d="M177.72441,177.73279l-74.82408,-74.82408l74.8229,-74.82289l74.82407,74.82407z" fill="url(#color-4)"/><path d="M617.82204,215.08034l-66.89665,65.83228l-65.83124,-66.89559l66.89664,-65.83227z" fill="url(#color-5)"/><path d="M643.19813,27.41969l-46.60426,69.74035l-69.73925,-46.60352l46.60425,-69.74035z" fill="url(#color-6)"/><path d="M824.23531,177.73279l-74.82408,-74.82408l74.8229,-74.8229l74.82407,74.82407z" fill="url(#color-7)"/><path d="M1264.33295,215.08034l-66.89665,65.83227l-65.83124,-66.89559l66.89665,-65.83227z" fill="url(#color-8)"/><path d="M1289.70904,27.41969l-46.60426,69.74035l-69.73925,-46.60352l46.60425,-69.74035z" fill="url(#color-9)"/></g></g></svg>