<svg version="1.1" xmlns="http://www.w3.org/2000/svg" xmlns:xlink="http://www.w3.org/1999/xlink" width="20.80301" height="17.50609" viewBox="0,0,20.80301,17.50609"><defs><linearGradient x1="480.04942" y1="5.34564" x2="480.04942" y2="16.45614" gradientUnits="userSpaceOnUse" id="color-1"><stop offset="0" stop-color="#d4aaaa"/><stop offset="1" stop-color="#cfcfcf"/></linearGradient><linearGradient x1="471.56432" y1="6.22534" x2="480.66408" y2="6.22534" gradientUnits="userSpaceOnUse" id="color-2"><stop offset="0" stop-color="#cfcfcf"/><stop offset="1" stop-color="#d4a9a9"/></linearGradient><linearGradient x1="470.91888" y1="5.34564" x2="470.91888" y2="16.45614" gradientUnits="userSpaceOnUse" id="color-3"><stop offset="0" stop-color="#d3d3d3"/><stop offset="1" stop-color="#cfcfcf"/></linearGradient><linearGradient x1="477.79217" y1="13.59019" x2="477.79217" y2="19.32209" gradientUnits="userSpaceOnUse" id="color-4"><stop offset="0" stop-color="#d3d3d3"/><stop offset="1" stop-color="#d4abab"/></linearGradient><linearGradient x1="467.41311" y1="6.3724" x2="481.34119" y2="18.05945" gradientUnits="userSpaceOnUse" id="color-5"><stop offset="0" stop-color="#d1d1d1"/><stop offset="1" stop-color="#d4abab"/></linearGradient><linearGradient x1="468.66163" y1="13.59019" x2="468.66163" y2="19.32209" gradientUnits="userSpaceOnUse" id="color-6"><stop offset="0" stop-color="#d3d3d3"/><stop offset="1" stop-color="#d4abab"/></linearGradient><linearGradient x1="473.97982" y1="2.84564" x2="473.97982" y2="20.35173" gradientUnits="userSpaceOnUse" id="color-7"><stop offset="0" stop-color="#d4d4d4" stop-opacity="0.03137"/><stop offset="1" stop-color="#8b8b8b"/></linearGradient><linearGradient x1="473.97981" y1="2.84564" x2="473.97981" y2="20.35173" gradientUnits="userSpaceOnUse" id="color-8"><stop offset="0" stop-color="#ffffff" stop-opacity="0.30588"/><stop offset="1" stop-color="#ffffff" stop-opacity="0.71765"/></linearGradient></defs><g transform="translate(-463.57831,-2.84564)"><g stroke="none" stroke-width="0" stroke-miterlimit="10"><path d="M479.40397,16.45614v-11.1105h1.29089v11.1105z" fill="url(#color-1)"/><path d="M471.56432,7.10504v-1.7594h9.09976v1.7594z" fill="url(#color-2)"/><path d="M470.27343,16.45614v-11.1105h1.29089v11.1105z" fill="url(#color-3)"/><path d="M480.69486,16.45614c0,1.58282 -1.29958,2.86595 -2.90269,2.86595c-1.60311,0 -2.90269,-1.28313 -2.90269,-2.86595c0,-1.58282 1.29958,-2.86595 2.90269,-2.86595c1.60311,0 2.90269,1.28313 2.90269,2.86595z" fill="url(#color-4)"/><path d="M466.91641,6.96435l0.9934,-1.18389l13.92808,11.68705l-0.9934,1.18389z" fill="url(#color-5)"/><path d="M471.56432,16.45614c0,1.58282 -1.29958,2.86595 -2.90269,2.86595c-1.60311,0 -2.90269,-1.28313 -2.90269,-2.86595c0,-1.58282 1.29958,-2.86595 2.90269,-2.86595c1.60311,0 2.90269,1.28313 2.90269,2.86595z" fill="url(#color-6)"/><path d="M463.57832,20.35173v-17.50609h20.803v17.50609z" fill="url(#color-7)"/><path d="M463.57831,20.35173v-17.50609h20.803v17.50609z" fill="url(#color-8)"/></g></g></svg>