<svg version="1.1" xmlns="http://www.w3.org/2000/svg" xmlns:xlink="http://www.w3.org/1999/xlink" width="2160.66066" height="1027.02703" viewBox="0,0,2160.66066,1027.02703"><defs><linearGradient x1="320" y1="-333.51351" x2="320" y2="693.51351" gradientUnits="userSpaceOnUse" id="color-1"><stop offset="0" stop-color="#525252"/><stop offset="1" stop-color="#fbfbfb"/></linearGradient><linearGradient x1="317.54038" y1="153.69134" x2="317.54038" y2="213.3768" gradientUnits="userSpaceOnUse" id="color-2"><stop offset="0" stop-color="#525252"/><stop offset="1" stop-color="#fbfbfb"/></linearGradient><linearGradient x1="349.68324" y1="153.69134" x2="349.68324" y2="213.3768" gradientUnits="userSpaceOnUse" id="color-3"><stop offset="0" stop-color="#525252"/><stop offset="1" stop-color="#fbfbfb"/></linearGradient><linearGradient x1="297.03883" y1="150.15726" x2="310.81831" y2="209.84274" gradientUnits="userSpaceOnUse" id="color-4"><stop offset="0" stop-color="#858585"/><stop offset="0.42925" stop-color="#ffffff"/><stop offset="0.44575" stop-color="#ababab"/><stop offset="1" stop-color="#ffffff"/></linearGradient><linearGradient x1="314.0063" y1="150.15726" x2="314.0063" y2="209.84272" gradientUnits="userSpaceOnUse" id="color-5"><stop offset="0" stop-color="#525252"/><stop offset="1" stop-color="#fbfbfb"/></linearGradient><linearGradient x1="329.18169" y1="150.15726" x2="342.96117" y2="209.84273" gradientUnits="userSpaceOnUse" id="color-6"><stop offset="0" stop-color="#858585"/><stop offset="0.34198" stop-color="#ffffff"/><stop offset="0.35142" stop-color="#ababab"/><stop offset="1" stop-color="#ffffff"/></linearGradient><linearGradient x1="346.14916" y1="150.15726" x2="346.14916" y2="209.84272" gradientUnits="userSpaceOnUse" id="color-7"><stop offset="0" stop-color="#525252"/><stop offset="1" stop-color="#fbfbfb"/></linearGradient></defs><g transform="translate(760.33033,333.51352)"><g stroke-miterlimit="10"><path d="M-760.33033,693.51351v-1027.02703h2160.66066v1027.02703z" fill-opacity="0.2" fill="#000000" stroke="url(#color-1)" stroke-width="0"/><path d="M297.38491,183.53407v-29.84273l20.15548,0.0762v59.44981l-20.15548,0.15947z" fill-opacity="0.28235" fill="#000000" stroke="url(#color-2)" stroke-width="0"/><path d="M329.52777,183.53407v-29.84273l20.15548,0.0762v59.44981l-20.15548,0.15946z" fill-opacity="0.28235" fill="#000000" stroke="url(#color-3)" stroke-width="0"/><path d="M293.85083,179.99999v-29.84273l20.15548,0.0762v59.44981l-20.15548,0.15947z" fill="url(#color-4)" stroke="url(#color-5)" stroke-width="2.5"/><path d="M325.99369,179.99999v-29.84273l20.15548,0.0762v59.44981l-20.15548,0.15946z" fill="url(#color-6)" stroke="url(#color-7)" stroke-width="2.5"/></g></g></svg>