<svg version="1.1" xmlns="http://www.w3.org/2000/svg" xmlns:xlink="http://www.w3.org/1999/xlink" width="97.13202" height="96.58731" viewBox="0,0,97.13202,96.58731"><g transform="translate(-271.43399,-131.70634)"><g fill="#ffffff" stroke="none" stroke-width="0" stroke-miterlimit="10"><path d="M308.70671,173.97907c0,10.29258 -8.34378,18.63636 -18.63636,18.63636c-10.29258,0 -18.63636,-8.34378 -18.63636,-18.63636c0,-10.29258 8.34378,-18.63636 18.63636,-18.63636c10.29258,0 18.63636,8.34378 18.63636,18.63636z"/><path d="M356.81277,189.82756c5.64836,0 10.22727,4.5789 10.22727,10.22727c0,5.64836 -4.5789,10.22727 -10.22727,10.22727c-5.64836,0 -10.22727,-4.5789 -10.22727,-10.22727c0,-5.64836 4.5789,-10.22727 10.22727,-10.22727z"/><path d="M334.16126,145.34271c0,7.53116 -6.10521,13.63636 -13.63636,13.63636c-7.53116,0 -13.63637,-6.10521 -13.63637,-13.63636c0,-7.53116 6.10521,-13.63637 13.63637,-13.63637c7.53116,0 13.63636,6.10521 13.63636,13.63637z"/><path d="M368.56601,175.56998c0,9.1629 -7.428,16.59091 -16.5909,16.59091c-9.1629,0 -16.59091,-7.428 -16.59091,-16.59091c0,-9.1629 7.428,-16.59091 16.59091,-16.59091c9.1629,0 16.5909,7.428 16.5909,16.59091z"/><path d="M320.52489,181.2518c3.76558,0 6.81818,3.0526 6.81818,6.81818c0,3.76557 -3.0526,6.81818 -6.81818,6.81818c-3.76557,0 -6.81818,-3.0526 -6.81818,-6.81818c0,-3.76558 3.0526,-6.81818 6.81818,-6.81818z"/><path d="M323.93399,192.65728c0,5.64837 -4.57891,10.22728 -10.22727,10.22728c-5.64837,0 -10.22727,-4.57891 -10.22727,-10.22728c0,-5.64837 4.57891,-10.22728 10.22727,-10.22728c5.64837,0 10.22727,4.57891 10.22727,10.22728z"/><path d="M345.61147,147.61544c3.76558,0 6.81818,3.0526 6.81818,6.81818c0,3.76557 -3.0526,6.81818 -6.81818,6.81818c-3.76557,0 -6.81818,-3.0526 -6.81818,-6.81818c0,-3.76558 3.0526,-6.81818 6.81818,-6.81818z"/><path d="M354.24784,209.65728c0,10.29258 -8.34378,18.63637 -18.63636,18.63637c-10.29258,0 -18.63636,-8.34379 -18.63636,-18.63637c0,-10.29258 8.34378,-18.63637 18.63636,-18.63637c10.29258,0 18.63636,8.34379 18.63636,18.63637z"/><path d="M319.58117,206.32395c0,10.29258 -8.34379,18.63637 -18.63637,18.63637c-10.29258,0 -18.63636,-8.34379 -18.63636,-18.63637c0,-10.29258 8.34378,-18.63637 18.63636,-18.63637c10.29258,0 18.63637,8.34379 18.63637,18.63637z"/></g></g></svg>