<svg version="1.1" xmlns="http://www.w3.org/2000/svg" xmlns:xlink="http://www.w3.org/1999/xlink" width="127.11804" height="125.86849" viewBox="0,0,127.11804,125.86849"><g transform="translate(-256.21991,-116.72809)"><g fill-opacity="0.90196" fill="#ffffff" stroke="none" stroke-width="0" stroke-miterlimit="10"><path d="M293.47639,175.09219c0.43364,10.28344 -7.5512,18.97135 -17.83464,19.40498c-10.28344,0.43364 -18.97135,-7.5512 -19.40498,-17.83464c-0.43364,-10.28344 7.5512,-18.97135 17.83464,-19.40498c10.28344,-0.43364 18.97135,7.5512 19.40498,17.83464z"/><path d="M370.5015,208.69144c5.64334,-0.23797 10.4111,4.14395 10.64908,9.7873c0.23797,5.64334 -4.14395,10.4111 -9.7873,10.64908c-5.64334,0.23797 -10.4111,-4.14395 -10.64908,-9.7873c-0.23797,-5.64334 4.14395,-10.4111 9.7873,-10.64908z"/><path d="M332.05658,129.79018c0.3173,7.52447 -5.52527,13.88147 -13.04974,14.19877c-7.52447,0.3173 -13.88148,-5.52527 -14.19878,-13.04974c-0.3173,-7.52447 5.52527,-13.88148 13.04975,-14.19878c7.52447,-0.3173 13.88147,5.52527 14.19877,13.04975z"/><path d="M383.32294,172.8958c0.38604,9.15476 -6.72241,16.88913 -15.87718,17.27517c-9.15476,0.38604 -16.88913,-6.72241 -17.27517,-15.87719c-0.38604,-9.15476 6.72241,-16.88913 15.87719,-17.27517c9.15476,-0.38604 16.88912,6.72241 17.27516,15.87719z"/><path d="M306.22246,196.84723c3.76224,-0.15865 6.94074,2.76263 7.09938,6.52487c0.15865,3.76223 -2.76263,6.94074 -6.52487,7.09938c-3.76223,0.15865 -6.94074,-2.76263 -7.09938,-6.52487c-0.15865,-3.76224 2.76263,-6.94074 6.52487,-7.09938z"/><path d="M310.10906,208.09895c0.23797,5.64335 -4.14396,10.41111 -9.7873,10.64909c-5.64335,0.23797 -10.4111,-4.14396 -10.64908,-9.78731c-0.23797,-5.64335 4.14396,-10.41111 9.7873,-10.64909c5.64335,-0.23797 10.4111,4.14396 10.64908,9.78731z"/><path d="M358.57906,130.94651c3.76224,-0.15865 6.94074,2.76263 7.09938,6.52487c0.15865,3.76223 -2.76263,6.94074 -6.52487,7.09938c-3.76223,0.15865 -6.94074,-2.76263 -7.09938,-6.52487c-0.15865,-3.76224 2.76263,-6.94074 6.52487,-7.09938z"/><path d="M356.09891,223.17473c0.43364,10.28344 -7.5512,18.97136 -17.83464,19.40499c-10.28344,0.43364 -18.97135,-7.55121 -19.40498,-17.83465c-0.43364,-10.28344 7.5512,-18.97136 17.83464,-19.40499c10.28344,-0.43364 18.97135,7.55121 19.40498,17.83465z"/><path d="M321.32257,221.30491c0.43364,10.28344 -7.55121,18.97136 -17.83465,19.40499c-10.28344,0.43364 -18.97135,-7.55121 -19.40498,-17.83465c-0.43364,-10.28344 7.5512,-18.97136 17.83464,-19.40499c10.28344,-0.43364 18.97136,7.55121 19.40499,17.83465z"/></g></g></svg>