<svg version="1.1" xmlns="http://www.w3.org/2000/svg" xmlns:xlink="http://www.w3.org/1999/xlink" width="116.91187" height="24.56737" viewBox="0,0,116.91187,24.56737"><defs><linearGradient x1="320.00001" y1="169.10987" x2="320.00001" y2="190.89012" gradientUnits="userSpaceOnUse" id="color-1"><stop offset="0" stop-color="#666666"/><stop offset="1" stop-color="#333333"/></linearGradient><linearGradient x1="320.00003" y1="169.10988" x2="320.00003" y2="178.89994" gradientUnits="userSpaceOnUse" id="color-2"><stop offset="0" stop-color="#ffffff" stop-opacity="0"/><stop offset="1" stop-color="#ffffff" stop-opacity="0.25098"/></linearGradient><linearGradient x1="320.00003" y1="179.57857" x2="320.00003" y2="178.89994" gradientUnits="userSpaceOnUse" id="color-3"><stop offset="0" stop-color="#ffffff" stop-opacity="0"/><stop offset="1" stop-color="#ffffff" stop-opacity="0.14902"/></linearGradient><linearGradient x1="351.76995" y1="170.05045" x2="351.76995" y2="189.10694" gradientTransform="translate(-830.16418,-464.32757) scale(2.51883,2.51883)" gradientUnits="userSpaceOnUse" id="color-4"><stop offset="0" stop-color="#dbdbdb"/><stop offset="1" stop-color="#666666"/></linearGradient><linearGradient x1="275.57409" y1="170.04857" x2="275.57409" y2="189.10857" gradientUnits="userSpaceOnUse" id="color-5"><stop offset="0" stop-color="#dbdbdb"/><stop offset="1" stop-color="#666666"/></linearGradient><linearGradient x1="275.57409" y1="170.04856" x2="275.57409" y2="189.10857" gradientUnits="userSpaceOnUse" id="color-6"><stop offset="0" stop-color="#4d4d4d"/><stop offset="1" stop-color="#1f1f1f"/></linearGradient></defs><g transform="translate(-261.54407,-167.07275)"><g stroke-miterlimit="10"><path d="M262.29407,190.89012v-21.78024h115.41187v21.78024z" fill="url(#color-1)" stroke="#595959" stroke-width="1.5"/><g stroke="#000000" stroke-width="0"><path d="M262.29409,178.89994v-9.79006h115.41187v9.79006z" fill="url(#color-2)"/><path d="M377.70595,178.89994v0.67863h-115.41187v-0.67863z" fill="url(#color-3)"/></g><text transform="translate(329.58348,184.34269) scale(0.39701,0.39701)" font-size="40" xml:space="preserve" fill="url(#color-4)" stroke="none" stroke-width="1" font-family="Sans Serif" font-weight="normal" text-anchor="start"><tspan x="0" dy="0">Music</tspan></text><path d="M272.36561,179.55023l-6.32152,-6.1407l3.0224,-3.24466l6.32075,6.11564l6.36859,-6.23194l3.17561,3.13318l-6.24429,6.32862l6.41694,6.20299l-3.12357,3.15804l-6.37574,-6.14783l-6.12519,6.385l-3.29931,-3.10556z" fill="url(#color-5)" stroke="url(#color-6)" stroke-width="1"/></g></g></svg>