<svg version="1.1" xmlns="http://www.w3.org/2000/svg" xmlns:xlink="http://www.w3.org/1999/xlink" width="1090.76132" height="181.09203" viewBox="0,0,1090.76132,181.09203"><defs><linearGradient x1="202.98631" y1="220.90107" x2="220.34488" y2="312.19281" gradientUnits="userSpaceOnUse" id="color-1"><stop offset="0" stop-color="#80ff66"/><stop offset="1" stop-color="#e1ff66"/></linearGradient><linearGradient x1="202.98631" y1="220.90107" x2="220.34488" y2="312.19281" gradientUnits="userSpaceOnUse" id="color-2"><stop offset="0" stop-color="#80ff66"/><stop offset="1" stop-color="#e1ff66"/></linearGradient><linearGradient x1="849.49721" y1="220.90107" x2="866.85579" y2="312.19281" gradientUnits="userSpaceOnUse" id="color-3"><stop offset="0" stop-color="#80ff66"/><stop offset="1" stop-color="#e1ff66"/></linearGradient><linearGradient x1="-3.19809" y1="246.33308" x2="93.28498" y2="246.33308" gradientUnits="userSpaceOnUse" id="color-4"><stop offset="0" stop-color="#c3ff66"/><stop offset="1" stop-color="#66eaff"/></linearGradient><linearGradient x1="643.31281" y1="246.33307" x2="739.79588" y2="246.33307" gradientUnits="userSpaceOnUse" id="color-5"><stop offset="0" stop-color="#c3ff66"/><stop offset="1" stop-color="#66eaff"/></linearGradient><linearGradient x1="343.79224" y1="301.60497" x2="441.05211" y2="359.50342" gradientUnits="userSpaceOnUse" id="color-6"><stop offset="0" stop-color="#66ffb3"/><stop offset="1" stop-color="#ff66fc"/></linearGradient><linearGradient x1="343.79224" y1="301.60497" x2="441.05211" y2="359.50342" gradientUnits="userSpaceOnUse" id="color-7"><stop offset="0" stop-color="#66ffb3"/><stop offset="1" stop-color="#ff66fc"/></linearGradient><linearGradient x1="990.30313" y1="301.60497" x2="1087.56301" y2="359.50342" gradientUnits="userSpaceOnUse" id="color-8"><stop offset="0" stop-color="#66ffb3"/><stop offset="1" stop-color="#ff66fc"/></linearGradient></defs><g transform="translate(3.1981,-198.09187)"><g stroke="#000000" stroke-width="0" stroke-miterlimit="10"><path d="M220.34524,312.19273l-54.3256,-36.96686l36.9663,-54.32473l54.32559,36.96687z" fill="url(#color-1)"/><path d="M220.34524,312.19273l-54.3256,-36.96686l36.9663,-54.32473l54.32559,36.96687z" fill="url(#color-2)"/><path d="M866.85615,312.19273l-54.3256,-36.96686l36.9663,-54.32473l54.32559,36.96687z" fill="url(#color-3)"/><path d="M66.70476,294.57426l-69.90286,-26.58062l26.58021,-69.90176l69.90286,26.58063z" fill="url(#color-4)"/><path d="M713.21567,294.57426l-69.90286,-26.58062l26.58021,-69.90176l69.90286,26.58062z" fill="url(#color-5)"/><path d="M441.05233,359.50304l-77.57977,19.68087l-19.68055,-77.57855l77.57978,-19.68086z" fill="url(#color-6)"/><path d="M441.05233,359.50304l-77.57977,19.68087l-19.68055,-77.57855l77.57978,-19.68086z" fill="url(#color-7)"/><path d="M1087.56323,359.50304l-77.57976,19.68087l-19.68055,-77.57855l77.57978,-19.68086z" fill="url(#color-8)"/></g></g></svg>