<svg version="1.1" xmlns="http://www.w3.org/2000/svg" xmlns:xlink="http://www.w3.org/1999/xlink" width="20.803" height="17.50609" viewBox="0,0,20.803,17.50609"><defs><linearGradient x1="473.9798" y1="2.84564" x2="473.9798" y2="20.35173" gradientUnits="userSpaceOnUse" id="color-1"><stop offset="0" stop-color="#d4d4d4" stop-opacity="0.03137"/><stop offset="1" stop-color="#8b8b8b"/></linearGradient><linearGradient x1="468.66161" y1="13.59019" x2="468.66161" y2="19.32209" gradientUnits="userSpaceOnUse" id="color-2"><stop offset="0" stop-color="#d3d3d3"/><stop offset="1" stop-color="#cfcfcf"/></linearGradient><linearGradient x1="480.0494" y1="5.34564" x2="480.0494" y2="16.45614" gradientUnits="userSpaceOnUse" id="color-3"><stop offset="0" stop-color="#d3d3d3"/><stop offset="1" stop-color="#cfcfcf"/></linearGradient><linearGradient x1="477.79215" y1="13.59019" x2="477.79215" y2="19.32209" gradientUnits="userSpaceOnUse" id="color-4"><stop offset="0" stop-color="#d3d3d3"/><stop offset="1" stop-color="#cfcfcf"/></linearGradient><linearGradient x1="476.11419" y1="5.34564" x2="476.11419" y2="7.10504" gradientUnits="userSpaceOnUse" id="color-5"><stop offset="0" stop-color="#d3d3d3"/><stop offset="1" stop-color="#cfcfcf"/></linearGradient><linearGradient x1="470.91886" y1="5.34564" x2="470.91886" y2="16.45614" gradientUnits="userSpaceOnUse" id="color-6"><stop offset="0" stop-color="#d3d3d3"/><stop offset="1" stop-color="#cfcfcf"/></linearGradient></defs><g transform="translate(-463.5783,-2.84564)"><g stroke="none" stroke-width="0" stroke-miterlimit="10"><path d="M463.5783,20.35173v-17.50609h20.803v17.50609z" fill="url(#color-1)"/><path d="M471.5643,16.45614c0,1.58282 -1.29958,2.86595 -2.90269,2.86595c-1.60311,0 -2.90269,-1.28313 -2.90269,-2.86595c0,-1.58282 1.29958,-2.86595 2.90269,-2.86595c1.60311,0 2.90269,1.28313 2.90269,2.86595z" fill="url(#color-2)"/><path d="M479.40395,16.45614v-11.1105h1.29089v11.1105z" fill="url(#color-3)"/><path d="M480.69484,16.45614c0,1.58282 -1.29958,2.86595 -2.90269,2.86595c-1.60311,0 -2.90269,-1.28313 -2.90269,-2.86595c0,-1.58282 1.29958,-2.86595 2.90269,-2.86595c1.60311,0 2.90269,1.28313 2.90269,2.86595z" fill="url(#color-4)"/><path d="M471.5643,7.10504v-1.7594h9.09976v1.7594z" fill="url(#color-5)"/><path d="M470.27341,16.45614v-11.1105h1.29089v11.1105z" fill="url(#color-6)"/></g></g></svg>