<svg version="1.1" xmlns="http://www.w3.org/2000/svg" xmlns:xlink="http://www.w3.org/1999/xlink" width="196.69236" height="191.1942" viewBox="0,0,196.69236,191.1942"><g transform="translate(-227.07072,-88.18731)"><g fill-opacity="0.65098" fill="#ffffff" stroke="none" stroke-width="0" stroke-miterlimit="10"><path d="M263.84167,187.17128c2.38215,10.01312 -3.80396,20.06147 -13.81708,22.44362c-10.01312,2.38215 -20.06147,-3.80396 -22.44362,-13.81708c-2.38215,-10.01312 3.80396,-20.06147 13.81708,-22.44362c10.01312,-2.38215 20.06147,3.80396 22.44362,13.81708z"/><path d="M411.16645,220.80158c5.495,-1.30728 11.00934,2.08754 12.31662,7.58255c1.30728,5.495 -2.08754,11.00934 -7.58255,12.31662c-5.495,1.30728 -11.00934,-2.08754 -12.31662,-7.58255c-1.30728,-5.495 2.08754,-11.00934 7.58255,-12.31662z"/><path d="M315.3406,99.22801c1.74304,7.32668 -2.78339,14.67912 -10.11006,16.42216c-7.32668,1.74304 -14.67913,-2.78339 -16.42217,-10.11006c-1.74304,-7.32668 2.78339,-14.67913 10.11007,-16.42217c7.32668,-1.74304 14.67912,2.78339 16.42216,10.11007z"/><path d="M410.00025,154.035c2.1207,8.91411 -3.38646,17.8596 -12.30057,19.9803c-8.91411,2.1207 -17.8596,-3.38646 -19.9803,-12.30058c-2.1207,-8.91411 3.38646,-17.8596 12.30058,-19.9803c8.91411,-2.1207 17.85959,3.38646 19.98029,12.30058z"/><path d="M303.09159,236.28056c3.66334,-0.87152 7.33956,1.39169 8.21108,5.05503c0.87152,3.66333 -1.39169,7.33956 -5.05503,8.21108c-3.66333,0.87152 -7.33956,-1.39169 -8.21108,-5.05503c-0.87152,-3.66334 1.39169,-7.33956 5.05503,-8.21108z"/><path d="M289.92178,231.00353c1.30728,5.49501 -2.08755,11.00935 -7.58254,12.31663c-5.49501,1.30728 -11.00934,-2.08755 -12.31662,-7.58256c-1.30728,-5.49501 2.08755,-11.00935 7.58254,-12.31663c5.49501,-1.30728 11.00934,2.08755 12.31662,7.58256z"/><path d="M370.7841,88.37399c3.66334,-0.87152 7.33956,1.39169 8.21108,5.05503c0.87152,3.66333 -1.39169,7.33956 -5.05503,8.21108c-3.66333,0.87152 -7.33956,-1.39169 -8.21108,-5.05503c-0.87152,-3.66334 1.39169,-7.33956 5.05503,-8.21108z"/><path d="M370.59692,244.70377c2.38215,10.01312 -3.80396,20.06148 -13.81708,22.44363c-10.01312,2.38215 -20.06147,-3.80397 -22.44362,-13.81709c-2.38215,-10.01312 3.80396,-20.06148 13.81708,-22.44363c10.01312,-2.38215 20.06147,3.80397 22.44362,13.81709z"/><path d="M306.91458,256.42764c2.38215,10.01312 -3.80397,20.06148 -13.81709,22.44363c-10.01312,2.38215 -20.06147,-3.80397 -22.44362,-13.81709c-2.38215,-10.01312 3.80396,-20.06148 13.81708,-22.44363c10.01312,-2.38215 20.06148,3.80397 22.44363,13.81709z"/></g></g></svg>