<svg version="1.1" xmlns="http://www.w3.org/2000/svg" xmlns:xlink="http://www.w3.org/1999/xlink" width="160.16947" height="156.77262" viewBox="0,0,160.16947,156.77262"><g transform="translate(-241.16243,-102.20517)"><g fill-opacity="0.8" fill="#ffffff" stroke="none" stroke-width="0" stroke-miterlimit="10"><path d="M278.27303,179.50289c1.36361,10.20185 -5.80119,19.57751 -16.00304,20.94112c-10.20185,1.36361 -19.57751,-5.80119 -20.94112,-16.00304c-1.36361,-10.20185 5.80119,-19.57751 16.00304,-20.94112c10.20185,-1.36361 19.57751,5.80119 20.94112,16.00304z"/><path d="M389.74848,216.8781c5.59857,-0.74832 10.74375,3.18358 11.49208,8.78216c0.74832,5.59857 -3.18358,10.74375 -8.78216,11.49208c-5.59857,0.74832 -10.74375,-3.18358 -11.49208,-8.78216c-0.74832,-5.59857 3.18358,-10.74375 8.78216,-11.49208z"/><path d="M325.47032,114.03651c0.99777,7.46477 -4.24478,14.325 -11.70954,15.32277c-7.46477,0.99777 -14.32501,-4.24478 -15.32278,-11.70954c-0.99777,-7.46477 4.24478,-14.32501 11.70955,-15.32278c7.46477,-0.99777 14.325,4.24478 15.32277,11.70955z"/><path d="M397.28655,165.20021c1.21395,9.08213 -5.16448,17.42876 -14.2466,18.64271c-9.08213,1.21395 -17.42876,-5.16448 -18.64271,-14.24661c-1.21395,-9.08213 5.16448,-17.42876 14.24661,-18.64271c9.08213,-1.21395 17.42875,5.16448 18.6427,14.24662z"/><path d="M294.92512,214.88133c3.73239,-0.49888 7.1625,2.12238 7.66138,5.85477c0.49888,3.73238 -2.12238,7.1625 -5.85477,7.66138c-3.73238,0.49888 -7.1625,-2.12238 -7.66138,-5.85477c-0.49888,-3.73239 2.12238,-7.1625 5.85477,-7.66138z"/><path d="M299.81523,225.73462c0.74832,5.59858 -3.18359,10.74376 -8.78216,11.49209c-5.59858,0.74832 -10.74375,-3.18359 -11.49208,-8.78217c-0.74832,-5.59858 3.18359,-10.74376 8.78216,-11.49209c5.59858,-0.74832 10.74375,3.18359 11.49208,8.78217z"/><path d="M366.85625,110.79768c3.73239,-0.49888 7.1625,2.12238 7.66138,5.85477c0.49888,3.73238 -2.12238,7.1625 -5.85477,7.66138c-3.73238,0.49888 -7.1625,-2.12238 -7.66138,-5.85477c-0.49888,-3.73239 2.12238,-7.1625 5.85477,-7.66138z"/><path d="M361.84966,234.59408c1.36361,10.20185 -5.80119,19.57752 -16.00304,20.94113c-10.20185,1.36361 -19.57751,-5.8012 -20.94112,-16.00305c-1.36361,-10.20185 5.80119,-19.57752 16.00304,-20.94113c10.20185,-1.36361 19.57751,5.8012 20.94112,16.00305z"/><path d="M312.17917,237.87022c1.36361,10.20185 -5.8012,19.57752 -16.00305,20.94113c-10.20185,1.36361 -19.57751,-5.8012 -20.94112,-16.00305c-1.36361,-10.20185 5.80119,-19.57752 16.00304,-20.94113c10.20185,-1.36361 19.57752,5.8012 20.94113,16.00305z"/></g></g></svg>