<svg version="1.1" xmlns="http://www.w3.org/2000/svg" xmlns:xlink="http://www.w3.org/1999/xlink" width="268.29077" height="287.16194" viewBox="0,0,268.29077,287.16194"><g transform="translate(-205.41233,-35.83373)"><g fill-opacity="0.25098" fill="#ffffff" stroke="none" stroke-width="0" stroke-miterlimit="10"><path d="M240.62655,212.19965c4.70637,9.15354 1.10124,20.38921 -8.05231,25.09558c-9.15354,4.70637 -20.38921,1.10124 -25.09558,-8.05231c-4.70637,-9.15354 -1.10124,-20.38921 8.05231,-25.09558c9.15354,-4.70637 20.38921,-1.10124 25.09558,8.05231z"/><path d="M458.79717,208.88719c5.02328,-2.58276 11.1892,-0.60434 13.77196,4.41895c2.58276,5.02328 0.60434,11.1892 -4.41895,13.77196c-5.02328,2.58276 -11.1892,0.60434 -13.77196,-4.41895c-2.58276,-5.02328 -0.60434,-11.1892 4.41895,-13.77196z"/><path d="M282.57554,74.09861c3.44369,6.69771 0.80578,14.91894 -5.89193,18.36262c-6.69771,3.44369 -14.91894,0.80578 -18.36262,-5.89192c-3.44369,-6.69771 -0.80578,-14.91894 5.89193,-18.36263c6.69771,-3.44369 14.91894,-0.80578 18.36262,5.89194z"/><path d="M427.98895,117.65447c4.18982,8.14887 0.98037,18.15138 -7.1685,22.34119c-8.14887,4.18982 -18.15138,0.98037 -22.3412,-7.16851c-4.18982,-8.14887 -0.98037,-18.15138 7.16851,-22.3412c8.14887,-4.18982 18.15137,-0.98036 22.34119,7.16852z"/><path d="M299.08502,300.05123c3.34886,-1.72184 7.45947,-0.40289 9.18131,2.94597c1.72184,3.34885 0.40289,7.45947 -2.94597,9.18131c-3.34885,1.72184 -7.45947,0.40289 -9.18131,-2.94597c-1.72184,-3.34886 -0.40289,-7.45947 2.94597,-9.18131z"/><path d="M281.88914,256.96408c2.58277,5.02329 0.60434,11.18921 -4.41894,13.77198c-5.02329,2.58277 -11.18921,0.60433 -13.77196,-4.41896c-2.58277,-5.02329 -0.60434,-11.18921 4.41894,-13.77198c5.02329,-2.58277 11.18921,-0.60433 13.77196,4.41896z"/><path d="M360.49785,36.58971c3.34886,-1.72184 7.45947,-0.40289 9.18131,2.94597c1.72184,3.34885 0.40289,7.45947 -2.94597,9.18131c-3.34885,1.72184 -7.45947,0.40289 -9.18131,-2.94597c-1.72184,-3.34886 -0.40289,-7.45947 2.94597,-9.18131z"/><path d="M398.43641,255.51101c4.70637,9.15354 1.10124,20.38922 -8.0523,25.09559c-9.15354,4.70637 -20.38921,1.10123 -25.09559,-8.05231c-4.70637,-9.15354 -1.10124,-20.38922 8.0523,-25.09559c9.15354,-4.70637 20.38921,-1.10123 25.09559,8.05231z"/><path d="M312.72194,295.83374c4.70637,9.15354 1.10123,20.38922 -8.05231,25.0956c-9.15354,4.70637 -20.38921,1.10123 -25.09559,-8.05231c-4.70637,-9.15354 -1.10124,-20.38922 8.0523,-25.09559c9.15354,-4.70637 20.38922,-1.10123 25.0956,8.05231z"/></g></g></svg>