<svg version="1.1" xmlns="http://www.w3.org/2000/svg" xmlns:xlink="http://www.w3.org/1999/xlink" width="631.88044" height="353.69447" viewBox="0,0,631.88044,353.69447"><defs><radialGradient cx="554.15111" cy="59.83495" r="81.05769" gradientUnits="userSpaceOnUse" id="color-1"><stop offset="0" stop-color="#ffffff" stop-opacity="0.14902"/><stop offset="1" stop-color="#ffffff" stop-opacity="0"/></radialGradient><linearGradient x1="169.10055" y1="25.57961" x2="236.84414" y2="25.57961" gradientUnits="userSpaceOnUse" id="color-2"><stop offset="0" stop-color="#000000" stop-opacity="0.85098"/><stop offset="1" stop-color="#000000" stop-opacity="0"/></linearGradient><radialGradient cx="84.8698" cy="25.55657" r="81.05769" gradientUnits="userSpaceOnUse" id="color-3"><stop offset="0" stop-color="#ffffff" stop-opacity="0.3098"/><stop offset="1" stop-color="#ffffff" stop-opacity="0"/></radialGradient><linearGradient x1="469.91066" y1="59.84649" x2="402.16709" y2="59.84649" gradientUnits="userSpaceOnUse" id="color-4"><stop offset="0" stop-color="#000000" stop-opacity="0.85098"/><stop offset="1" stop-color="#000000" stop-opacity="0"/></linearGradient><linearGradient x1="89.06595" y1="346.46351" x2="123.62291" y2="346.46351" gradientUnits="userSpaceOnUse" id="color-5"><stop offset="0" stop-color="#000000" stop-opacity="0.85098"/><stop offset="1" stop-color="#000000" stop-opacity="0"/></linearGradient><radialGradient cx="44.68161" cy="346.47504" r="41.34867" gradientUnits="userSpaceOnUse" id="color-6"><stop offset="0" stop-color="#ffffff" stop-opacity="0.14902"/><stop offset="1" stop-color="#ffffff" stop-opacity="0"/></radialGradient></defs><g transform="translate(-3.32835,-3.71191)"><g stroke-width="0" stroke-miterlimit="10"><path d="M473.09342,70.76629v-21.86268h162.11538v21.86268z" fill="url(#color-1)" stroke="#000000"/><path d="M169.10055,47.42427v-43.68932h67.74359v43.68932z" fill="url(#color-2)" stroke="#000000"/><path d="M3.80311,47.40123v-43.68932h162.11538v43.68932z" fill-opacity="0.85098" fill="#000000" stroke="#000000"/><path d="M3.81212,47.40123v-43.68932h162.11538v43.68932z" fill="url(#color-3)" stroke="#000000"/><path d="M473.08441,70.76629v-21.86268h162.11538v21.86268z" fill-opacity="0.85098" fill="#000000" stroke="#000000"/><path d="M402.16709,70.77783v-21.86268h67.74359v21.86268z" fill="url(#color-4)" stroke="#000000"/><path d="M89.06595,357.39485v-21.86268h34.55696v21.86268z" fill="url(#color-5)" stroke="#000000"/><path d="M3.32836,357.40638v-21.86268h82.69733v21.86268z" fill-opacity="0.85098" fill="#000000" stroke="#000000"/><path d="M3.33296,357.40638v-21.86268h82.69733v21.86268z" fill="url(#color-6)" stroke="#000000"/><path d="M472.83465,70.77783v-21.86268h0.24888v21.86268z" fill="#ffffff" stroke="none"/><path d="M469.88016,70.75475v-21.86268h0.24888v21.86268z" fill="#5f5f5f" stroke="none"/><path d="M470.14094,70.75475v-21.86268h2.68848v21.86268z" fill="#d3d3d3" stroke="none"/><path d="M168.71423,47.40123v-43.64325h0.24888v43.64325z" fill="#ffffff" stroke="none"/><path d="M165.75973,47.35516v-43.64325h0.24888v43.64325z" fill="#5f5f5f" stroke="none"/><path d="M166.02051,47.35516v-43.64325h2.68848v43.64325z" fill="#d3d3d3" stroke="none"/><path d="M88.79716,357.40638v-21.83962h0.24889v21.83962z" fill="#ffffff" stroke="none"/><path d="M85.84266,357.38332v-21.83962h0.24889v21.83962z" fill="#5f5f5f" stroke="none"/><path d="M86.10344,357.38332v-21.83962h2.68848v21.83962z" fill="#d3d3d3" stroke="none"/></g></g></svg>