<svg version="1.1" xmlns="http://www.w3.org/2000/svg" xmlns:xlink="http://www.w3.org/1999/xlink" width="70.53249" height="92.15388" viewBox="0,0,70.53249,92.15388"><defs><linearGradient x1="308.84181" y1="152.47774" x2="308.84181" y2="212.1632" gradientUnits="userSpaceOnUse" id="color-1"><stop offset="0" stop-color="#525252"/><stop offset="1" stop-color="#fbfbfb"/></linearGradient><linearGradient x1="335.59493" y1="152.47774" x2="335.59493" y2="212.1632" gradientUnits="userSpaceOnUse" id="color-2"><stop offset="0" stop-color="#525252"/><stop offset="1" stop-color="#fbfbfb"/></linearGradient><linearGradient x1="286.46795" y1="156.89419" x2="326.77892" y2="203.10581" gradientUnits="userSpaceOnUse" id="color-3"><stop offset="0" stop-color="#525252"/><stop offset="0.40094" stop-color="#ffffff"/><stop offset="0.41274" stop-color="#ababab"/><stop offset="1" stop-color="#ffffff"/></linearGradient><linearGradient x1="306.62343" y1="150.15727" x2="306.62343" y2="209.84273" gradientUnits="userSpaceOnUse" id="color-4"><stop offset="0" stop-color="#525252"/><stop offset="1" stop-color="#fbfbfb"/></linearGradient><linearGradient x1="313.22108" y1="156.89419" x2="353.53205" y2="203.10581" gradientUnits="userSpaceOnUse" id="color-5"><stop offset="0" stop-color="#525252"/><stop offset="0.42925" stop-color="#ffffff"/><stop offset="0.44575" stop-color="#ababab"/><stop offset="0.98585" stop-color="#ffffff"/></linearGradient><linearGradient x1="333.37655" y1="150.15727" x2="333.37655" y2="209.84273" gradientUnits="userSpaceOnUse" id="color-6"><stop offset="0" stop-color="#525252"/><stop offset="1" stop-color="#fbfbfb"/></linearGradient></defs><g transform="translate(-285.21795,-147.67661)"><g stroke-miterlimit="10"><path d="M288.68633,182.32047v-29.84273l20.1555,14.92137l20.15548,14.92137l-20.15548,14.92137l-20.1555,14.92137z" fill-opacity="0.28235" fill="#000000" stroke="url(#color-1)" stroke-width="0"/><path d="M315.43946,182.32047v-29.84273l20.15548,14.92137l20.1555,14.92137l-20.1555,14.92137l-20.15548,14.92137z" fill-opacity="0.28235" fill="#000000" stroke="url(#color-2)" stroke-width="0"/><text transform="translate(311.65838,233.83049) scale(0.5,0.5)" font-size="40" xml:space="preserve" fill-opacity="0.28235" fill="#000000" stroke="none" stroke-width="0" font-family="Sans Serif" font-weight="normal" text-anchor="start"><tspan x="0" dy="0">1s</tspan></text><path d="M286.46795,180v-29.84273l20.1555,14.92137l20.15548,14.92137l-20.15548,14.92137l-20.1555,14.92137z" fill="url(#color-3)" stroke="url(#color-4)" stroke-width="2.5"/><path d="M313.22108,180v-29.84273l20.15548,14.92137l20.1555,14.92137l-20.1555,14.92137l-20.15548,14.92137z" fill="url(#color-5)" stroke="url(#color-6)" stroke-width="2.5"/><text transform="translate(309.44,231.51002) scale(0.5,0.5)" font-size="40" xml:space="preserve" fill="#bfbfbf" stroke="none" stroke-width="1" font-family="Sans Serif" font-weight="normal" text-anchor="start"><tspan x="0" dy="0">1s</tspan></text></g></g></svg>